HIERARCHY
ROOT SpineBase
{
  OFFSET 0.000000 0.000000 0.000000
  CHANNELS 6 Xposition Yposition Zposition Zrotation Xrotation Yrotation
  JOINT SpineMid
  {
    OFFSET 0.000000 31.796215 0.000000
    CHANNELS 3 Zrotation Xrotation Yrotation
    JOINT SpineShoulder
    {
      OFFSET 0.121494 23.589573 -0.739597
      CHANNELS 3 Zrotation Xrotation Yrotation
      JOINT Neck
      {
        OFFSET 0.078012 7.800826 -0.564230
        CHANNELS 3 Zrotation Xrotation Yrotation
        JOINT Head
        {
          OFFSET 4.867579 12.848910 4.906215
          CHANNELS 3 Zrotation Xrotation Yrotation
          End Site
          {
            OFFSET 0 0 0
          }
        }
      }
      JOINT ShoulderLeft
      {
        OFFSET -10.396098 -3.439895 -12.024804
        CHANNELS 3 Zrotation Xrotation Yrotation
        JOINT ElbowLeft
        {
          OFFSET -7.563222 -26.451907 -6.023727
          CHANNELS 3 Zrotation Xrotation Yrotation
          JOINT WristLeft
          {
            OFFSET 1.153331 -23.381167 -3.526791
            CHANNELS 3 Zrotation Xrotation Yrotation
            JOINT HandLeft
            {
              OFFSET 0.160123 -5.099338 0.648726
              CHANNELS 3 Zrotation Xrotation Yrotation
              JOINT HandTipLeft
              {
                OFFSET 0.611679 -8.315773 0.969073
                CHANNELS 3 Zrotation Xrotation Yrotation
                End Site
                {
                  OFFSET 0 0 0
                }
              }
              JOINT ThumbLeft
              {
                OFFSET 3.750453 1.028915 -1.596114
                CHANNELS 3 Zrotation Xrotation Yrotation
                End Site
                {
                  OFFSET 0 0 0
                }
              }
            }
          }
        }
      }
      JOINT ShoulderRight
      {
        OFFSET 10.874828 -5.416498 12.382975
        CHANNELS 3 Zrotation Xrotation Yrotation
        JOINT ElbowRight
        {
          OFFSET 3.802753 -29.512193 9.747924
          CHANNELS 3 Zrotation Xrotation Yrotation
          JOINT WristRight
          {
            OFFSET 0.871906 -24.751099 4.087715
            CHANNELS 3 Zrotation Xrotation Yrotation
            JOINT HandRight
            {
              OFFSET 1.378672 -5.438544 2.196360
              CHANNELS 3 Zrotation Xrotation Yrotation
              JOINT HandTipRight
              {
                OFFSET 0.302654 -5.818530 -0.668668
                CHANNELS 3 Zrotation Xrotation Yrotation
                End Site
                {
                  OFFSET 0 0 0
                }
              }
              JOINT ThumbRight
              {
                OFFSET -1.841335 0.110014 -2.936733
                CHANNELS 3 Zrotation Xrotation Yrotation
                End Site
                {
                  OFFSET 0 0 0
                }
              }
            }
          }
        }
      }
    }
  }
  JOINT HipLeft
  {
    OFFSET -4.453896 1.584437 -8.108412
    CHANNELS 3 Zrotation Xrotation Yrotation
    JOINT KneeLeft
    {
      OFFSET -9.986131 -35.658545 -2.369177
      CHANNELS 3 Zrotation Xrotation Yrotation
      JOINT AnkleLeft
      {
        OFFSET -7.611130 -38.992791 6.287989
        CHANNELS 3 Zrotation Xrotation Yrotation
        JOINT FootLeft
        {
          OFFSET 1.789373 -7.390133 -6.740618
          CHANNELS 3 Zrotation Xrotation Yrotation
          End Site
          {
            OFFSET 0 0 0
          }
        }
      }
    }
  }
  JOINT HipRight
  {
    OFFSET 5.114802 0.222666 1.144331
    CHANNELS 3 Zrotation Xrotation Yrotation
    JOINT KneeRight
    {
      OFFSET -3.086851 -37.724256 4.137675
      CHANNELS 3 Zrotation Xrotation Yrotation
      JOINT AnkleRight
      {
        OFFSET -6.161979 -36.129126 13.256234
        CHANNELS 3 Zrotation Xrotation Yrotation
        JOINT FootRight
        {
          OFFSET 3.959364 -6.367607 -5.509626
          CHANNELS 3 Zrotation Xrotation Yrotation
          End Site
          {
            OFFSET 0 0 0
          }
        }
      }
    }
  }
}
MOTION
Frames: 14
Frame Time: 0.033333
-29.677616 86.861143 335.090782 -2.085558 -2.124364 4.577154 -0.014201 0.566768 -4.663564 0.638821 0.647706 -0.040691 24.395537 -15.337662 0.416454 0.000000 0.000000 0.000000 1.257940 -8.724784 2.945685 -2.417409 16.042546 -1.419089 19.475400 17.073037 0.662308 -16.522863 1.206316 -4.533467 0.000000 0.000000 0.000000 0.000000 0.000000 0.000000 4.522097 65.045539 10.519729 -35.976976 35.459294 -41.855938 -4.881800 -4.641428 -20.910858 27.591136 -8.840437 36.681008 0.000000 0.000000 0.000000 0.000000 0.000000 0.000000 7.468151 7.371425 -7.046936 -5.973404 -3.294338 0.860329 -7.169793 -0.766592 8.819788 0.000000 0.000000 0.000000 3.095032 -2.009606 -4.209813 -5.039424 3.391231 -1.488942 -15.334553 8.232721 25.143530 0.000000 0.000000 0.000000
-29.227080 86.927824 334.906120 -1.561526 -1.323666 -2.024177 0.064008 0.836485 1.972457 1.467645 0.491077 0.037206 20.314655 -16.729896 1.783928 0.000000 0.000000 0.000000 0.159462 -9.901480 2.872855 -2.849219 17.574021 -1.245994 16.515795 15.437407 0.863850 -12.726212 0.212191 -3.290656 0.000000 0.000000 0.000000 0.000000 0.000000 0.000000 30.188776 61.401401 0.744335 -5.443223 46.674917 -42.665520 -15.010034 -1.813409 -7.825288 30.513905 -28.656215 18.469317 0.000000 0.000000 0.000000 0.000000 0.000000 0.000000 6.088852 6.972016 -0.203009 -6.339943 -3.621133 0.824035 -7.031071 -0.441448 8.929659 0.000000 0.000000 0.000000 2.328622 -2.240042 2.366719 -5.006510 3.495057 -1.631325 -11.493550 1.738820 17.792998 0.000000 0.000000 0.000000
-28.891355 86.879884 334.668456 -1.069609 -0.643218 -8.353001 0.121503 0.948503 8.326260 1.100250 0.646379 0.039584 17.448224 -17.855087 2.922570 0.000000 0.000000 0.000000 -0.211692 -9.966078 2.613532 -2.839875 17.596239 -0.986273 11.778585 12.186354 0.794478 -8.210479 -0.864545 -1.759492 0.000000 0.000000 0.000000 0.000000 0.000000 0.000000 47.242943 51.429800 0.058209 24.873546 38.135503 -36.537389 -6.026899 -16.511420 40.782786 -10.701297 -18.075957 -44.171882 0.000000 0.000000 0.000000 0.000000 0.000000 0.000000 4.890400 6.160288 6.446783 -6.470400 -3.394850 0.715718 -7.022620 -0.375226 9.010808 0.000000 0.000000 0.000000 1.782619 -2.363793 8.654450 -5.016238 3.292289 -1.736942 -11.514318 -14.162146 6.483728 0.000000 0.000000 0.000000
-28.674885 86.708717 334.366911 -0.626552 -0.190676 -13.996138 0.561844 0.336538 13.993445 0.905485 1.036516 0.046972 14.237438 -17.506204 3.232350 0.000000 0.000000 0.000000 -1.319356 -8.075238 2.038455 -2.578176 14.927630 -0.658226 8.841850 13.415303 0.441175 -5.742155 -4.387371 -1.235996 0.000000 0.000000 0.000000 0.000000 0.000000 0.000000 55.796868 35.754136 6.187965 37.557283 19.523562 -18.776421 0.231835 -37.772073 55.729885 2.650581 20.086463 -65.000674 0.000000 0.000000 0.000000 0.000000 0.000000 0.000000 4.050118 5.228335 12.412537 -6.636007 -2.894859 0.552317 -6.717601 -0.440585 8.849847 0.000000 0.000000 0.000000 1.414206 -2.273624 14.252846 -5.049020 2.751766 -1.778811 -8.524874 -13.316211 4.536153 0.000000 0.000000 0.000000
-28.596710 86.434576 334.011185 -0.315594 -0.019117 -18.974551 0.292231 0.120692 18.974191 1.188762 0.681697 0.072135 11.405320 -16.362332 3.261761 0.000000 0.000000 0.000000 -2.096063 -6.517459 1.748962 -2.804083 14.651858 -0.215151 6.576861 11.380708 0.172488 -4.116315 -5.640328 -0.870792 0.000000 0.000000 0.000000 0.000000 0.000000 0.000000 58.547561 16.368845 14.391753 42.278186 4.688019 -7.473253 -23.876275 -43.982231 33.991064 22.276727 15.916946 -60.595995 0.000000 0.000000 0.000000 0.000000 0.000000 0.000000 3.337759 4.401843 17.702068 -6.432568 -2.417067 0.424087 -6.353381 -0.535966 8.432860 0.000000 0.000000 0.000000 1.226538 -1.821564 19.190464 -5.122693 1.969667 -1.767812 -7.259265 -9.168886 6.537149 0.000000 0.000000 0.000000
-28.588775 86.180379 333.548395 -0.197202 -0.077306 -23.387465 0.150314 0.149234 23.387136 1.029555 0.001649 0.074445 9.767079 -14.307370 2.828172 0.000000 0.000000 0.000000 -2.417268 -4.185847 1.394482 -3.284594 13.892781 0.387772 3.715428 8.085696 -0.414877 -1.980165 -4.605245 -0.239427 0.000000 0.000000 0.000000 0.000000 0.000000 0.000000 57.125838 -2.357691 20.178172 41.095994 -8.419712 1.129029 -35.954004 -26.403165 18.443601 22.438485 4.564165 -44.437750 0.000000 0.000000 0.000000 0.000000 0.000000 0.000000 2.862495 3.671147 22.426406 -6.160696 -1.850050 0.266866 -5.866437 -0.397520 7.992035 0.000000 0.000000 0.000000 1.187283 -1.094786 23.572830 -5.241144 1.034327 -1.714588 -5.611645 -11.366064 2.809013 0.000000 0.000000 0.000000
-28.566281 85.907671 333.035406 -0.241087 -0.200668 -28.903826 0.114066 0.292197 28.903113 -0.000000 0.000000 0.000000 8.945411 -12.786338 2.636244 0.000000 0.000000 0.000000 -3.346967 -1.851197 1.231852 -1.228491 10.391402 0.282762 0.327479 8.856162 -0.806361 0.617265 -7.764448 0.111988 0.000000 0.000000 0.000000 0.000000 0.000000 0.000000 54.866041 -15.628623 22.873815 33.460683 -19.164208 6.898674 -32.453662 -10.318556 11.825387 20.375281 -9.060349 -29.473483 0.000000 0.000000 0.000000 0.000000 0.000000 0.000000 2.765983 2.748622 28.351774 -6.089521 -0.867421 -0.012251 -5.139338 -0.284107 7.537695 0.000000 0.000000 0.000000 1.158203 -0.189388 29.052643 -5.345603 -0.087654 -1.632443 -6.971359 -7.929036 6.228151 0.000000 0.000000 0.000000
-28.544723 85.580653 332.440424 -0.425276 -0.363133 -33.772612 0.151656 0.538260 33.770552 0.003085 -0.883642 0.009079 6.495377 -10.087353 2.331739 0.000000 0.000000 0.000000 -4.173254 1.423036 0.860841 -1.109879 7.061041 0.708881 -0.033792 8.397885 -0.993465 0.382442 -9.315400 -0.274434 0.000000 0.000000 0.000000 0.000000 0.000000 0.000000 49.577906 -24.719485 22.093223 18.526173 -29.676618 10.385979 -13.879690 7.218375 1.610848 12.210563 -18.924147 -16.390394 0.000000 0.000000 0.000000 0.000000 0.000000 0.000000 3.096354 1.907679 33.632961 -6.218997 0.319426 -0.340515 -4.353834 -0.076235 7.237386 0.000000 0.000000 0.000000 1.481450 0.531700 33.939924 -5.774845 -0.581899 -1.637050 -2.290417 -2.520848 5.323885 0.000000 0.000000 0.000000
-28.394220 85.165401 331.822912 -0.517385 -0.508610 -37.907643 0.284674 -0.280555 37.894103 0.096496 -0.238367 -0.006828 3.874023 -7.536803 2.253150 0.000000 0.000000 0.000000 -4.223703 3.716269 0.507604 -1.510364 4.244366 1.142159 -0.836804 7.794845 -1.287959 1.595057 -10.061219 -0.153572 0.000000 0.000000 0.000000 0.000000 0.000000 0.000000 42.999520 -29.546320 19.252789 -7.862514 -37.543647 7.686921 7.963730 12.034987 -11.601293 14.380859 -22.075707 -11.118954 0.000000 0.000000 0.000000 0.000000 0.000000 0.000000 3.424699 1.069335 38.161440 -6.435058 1.541451 -0.687721 -3.583899 -0.136251 7.114547 0.000000 0.000000 0.000000 2.049379 0.801569 38.146345 -6.512423 -0.193901 -1.767761 0.476496 -0.691218 4.211935 0.000000 0.000000 0.000000
-28.151663 84.806477 331.171284 -0.613661 -0.541291 -41.378940 0.275634 -0.328622 41.360020 0.011903 -0.255259 -0.018898 1.570882 -5.213398 2.188431 0.000000 0.000000 0.000000 -3.231005 6.296298 -0.293294 -1.819257 1.175001 1.703417 -4.045206 5.260081 -1.841687 3.589328 -9.639155 0.104467 0.000000 0.000000 0.000000 0.000000 0.000000 0.000000 39.526501 -31.647303 17.525157 -34.601125 -32.967243 2.232199 29.859015 12.410170 -20.004270 18.752468 -29.399820 -6.940473 0.000000 0.000000 0.000000 0.000000 0.000000 0.000000 3.814115 0.289832 41.978966 -6.717768 2.603607 -1.002965 -2.852025 -0.443228 7.101678 0.000000 0.000000 0.000000 3.106714 0.676950 41.744399 -7.519347 1.041235 -1.983840 1.860692 -1.213423 3.361380 0.000000 0.000000 0.000000
-27.656800 84.475590 330.655971 -0.504458 -0.540830 -44.029638 0.189028 -0.350980 44.012220 -0.048757 -0.217041 -0.022807 -0.834560 -2.784150 2.084500 0.000000 0.000000 0.000000 -1.775474 8.173236 -1.207193 -2.070974 -0.952293 2.248656 -5.611446 3.587017 -1.982071 5.212412 -9.132232 0.452970 0.000000 0.000000 0.000000 0.000000 0.000000 0.000000 38.085172 -31.737372 16.736452 -51.137725 -25.501682 1.131052 41.877402 19.887478 -20.212812 28.963855 -37.566674 -1.832535 0.000000 0.000000 0.000000 0.000000 0.000000 0.000000 3.856888 -0.583663 44.924194 -6.851929 3.464975 -1.283652 -2.134781 -0.898922 7.131654 0.000000 0.000000 0.000000 3.859569 0.138108 44.512426 -8.292233 2.594726 -2.212667 2.198067 -3.872325 2.486878 0.000000 0.000000 0.000000
-27.061873 84.140288 330.260960 -0.291765 -0.480818 -45.659409 0.075525 -0.351798 45.647130 -0.097432 -0.168009 -0.021865 -3.402049 -0.425984 2.073057 0.000000 0.000000 0.000000 0.038169 9.485150 -2.201833 -1.808463 -2.386305 2.761244 -6.350466 3.692101 -1.569475 6.104796 -9.179965 0.812277 0.000000 0.000000 0.000000 0.000000 0.000000 0.000000 39.021850 -30.350798 17.158425 -61.309149 -19.286824 1.545660 42.479346 23.950267 -16.252291 40.290858 -37.262740 1.047202 0.000000 0.000000 0.000000 0.000000 0.000000 0.000000 3.853000 -1.339005 46.765996 -7.194312 4.040182 -1.491914 -1.536974 -1.350646 7.322952 0.000000 0.000000 0.000000 4.395693 -0.725353 46.251113 -8.743349 4.262245 -2.404715 0.674389 -8.523599 1.985971 0.000000 0.000000 0.000000
-25.511757 84.010009 329.763723 1.069120 -0.141280 -47.038349 -0.832034 -0.686097 47.034685 -0.000000 0.000000 0.000000 -5.853455 1.130097 1.824310 0.000000 0.000000 0.000000 1.492006 9.584429 -3.162282 -0.578193 -2.885874 3.215999 -7.912637 1.979765 -1.214297 6.568265 -8.222622 1.024515 0.000000 0.000000 0.000000 0.000000 0.000000 0.000000 39.359654 -30.254931 18.015828 -65.964476 -15.318983 2.321785 44.057243 18.801292 -14.654397 38.493775 -24.587975 -4.609008 0.000000 0.000000 0.000000 0.000000 0.000000 0.000000 2.644317 -4.473560 48.656689 -5.724212 5.103669 -1.901138 -1.395728 -1.944350 7.557990 0.000000 0.000000 0.000000 3.111841 -3.652491 47.639765 -7.430091 5.555782 -2.431425 -3.471625 -15.976456 1.039858 0.000000 0.000000 0.000000
-24.553110 83.960654 329.650087 1.551194 -0.102037 -48.121674 -0.260320 -0.589659 48.155941 -0.938212 0.302346 -0.028499 -7.025487 3.551185 1.505383 0.000000 0.000000 0.000000 3.749430 10.163913 -4.055553 0.839903 -3.112651 3.596178 -8.688095 2.408505 -0.397584 5.913562 -8.277269 1.105159 0.000000 0.000000 0.000000 0.000000 0.000000 0.000000 39.697000 -30.327516 18.217567 -66.558902 -12.978245 3.216261 38.353554 11.195750 -13.955382 37.564141 1.181965 -12.876401 0.000000 0.000000 0.000000 0.000000 0.000000 0.000000 1.741743 -5.861227 49.881235 -4.554072 5.265502 -2.078476 -1.483529 -2.447814 7.620375 0.000000 0.000000 0.000000 2.410303 -4.935648 48.662924 -6.649946 6.246579 -2.466986 -0.924850 -13.367941 1.597540 0.000000 0.000000 0.000000
